# xmcd
#
# Track frame offsets: 
#        150
#        12086
#        23906
#        34320
#        44687
#        55795
#        64550
#        80846
#        91502
#        102420
#        118541
#        128726
#        140035
#
# Disc length: 2006 seconds
#
# Revision: 0
# Processed by: cddbd v1.5.2PL0 Copyright (c) Steve Scherf et al.
# Submitted via: ExactAudioCopy v0.99pb5
#
DISCID=ab07d40d
DTITLE=Настя Жук - Точки
DYEAR=2016
DGENRE=Acoustic
TTITLE0=Призраки
TTITLE1=Танго
TTITLE2=Послушай
TTITLE3=Стена
TTITLE4=Чай с имбирём и корицей
TTITLE5=Мотылёк
TTITLE6=Лети
TTITLE7=Музыка улиц
TTITLE8=Господин
TTITLE9=Молитва
TTITLE10=Ночной дождь
TTITLE11=Завтрашний день
TTITLE12=Bonus Track
EXTD=
EXTT0=
EXTT1=
EXTT2=
EXTT3=
EXTT4=
EXTT5=
EXTT6=
EXTT7=
EXTT8=
EXTT9=
EXTT10=
EXTT11=
EXTT12=
PLAYORDER=
